<svg width="255" height="57" viewBox="0 0 255 57" fill="none" xmlns="http://www.w3.org/2000/svg">
<rect x="2" y="2" width="251" height="53" fill="white" stroke="black" stroke-width="3"/>
<path d="M144.41 38.1953L148.375 20.0938H150.74L152.025 21.6387L147.8 40H145.189L144.41 38.1953ZM143.357 20.0938L146.707 38.332L145.845 40H142.824L138.599 20.0938H143.357ZM154.199 38.2363L157.521 20.0938H162.265L158.041 40H155.033L154.199 38.2363ZM152.449 20.0938L156.509 38.3047L155.689 40H153.078L148.757 21.6113L150.097 20.0938H152.449ZM180.651 36.3086V40H170.042V36.3086H180.651ZM171.751 20.0938V40H166.952V20.0938H171.751ZM179.284 27.9961V31.5645H170.042V27.9961H179.284ZM180.692 20.0938V23.7988H170.042V20.0938H180.692ZM193.855 24.2773L189.002 40H183.848L191.162 20.0938H194.43L193.855 24.2773ZM197.875 40L193.008 24.2773L192.379 20.0938H195.688L203.043 40H197.875ZM197.684 32.5762V36.2812H187.471V32.5762H197.684ZM213.773 35.3105L217.915 20.0938H223.288L216.575 40H213.103L213.773 35.3105ZM210.013 20.0938L214.155 35.3105L214.853 40H211.339L204.667 20.0938H210.013ZM241.25 36.3086V40H230.641V36.3086H241.25ZM232.35 20.0938V40H227.551V20.0938H232.35ZM239.883 27.9961V31.5645H230.641V27.9961H239.883ZM241.291 20.0938V23.7988H230.641V20.0938H241.291Z" fill="#1D222E"/>
<rect x="2" y="1" width="125" height="54" fill="#1D222E"/>
<path d="M30.6949 37.2793V40H20.1266V37.2793H30.6949ZM21.0973 20.0938V40H17.6656V20.0938H21.0973ZM29.3141 28.4062V31.0859H20.1266V28.4062H29.3141ZM30.6266 20.0938V22.8281H20.1266V20.0938H30.6266ZM44.7605 20.0938V40H41.3563V20.0938H44.7605ZM51.0086 20.0938V22.8281H35.1629V20.0938H51.0086ZM69.5859 28.4062V31.127H59.0176V28.4062H69.5859ZM59.8652 20.0938V40H56.4336V20.0938H59.8652ZM72.2246 20.0938V40H68.8066V20.0938H72.2246ZM92.1418 37.2793V40H81.5734V37.2793H92.1418ZM82.5441 20.0938V40H79.1125V20.0938H82.5441ZM90.7609 28.4062V31.0859H81.5734V28.4062H90.7609ZM92.0734 20.0938V22.8281H81.5734V20.0938H92.0734ZM97.7445 20.0938H104.786C106.299 20.0938 107.588 20.3216 108.655 20.7773C109.721 21.2331 110.537 21.9076 111.102 22.8008C111.676 23.6849 111.963 24.7786 111.963 26.082C111.963 27.0755 111.781 27.9505 111.416 28.707C111.052 29.4635 110.537 30.1016 109.871 30.6211C109.206 31.1315 108.413 31.528 107.493 31.8105L106.454 32.3164H100.123L100.096 29.5957H104.84C105.661 29.5957 106.344 29.4499 106.891 29.1582C107.438 28.8665 107.848 28.4701 108.121 27.9688C108.404 27.4583 108.545 26.8841 108.545 26.2461C108.545 25.5534 108.409 24.9518 108.135 24.4414C107.871 23.9219 107.461 23.5254 106.905 23.252C106.349 22.9694 105.642 22.8281 104.786 22.8281H101.176V40H97.7445V20.0938ZM109.106 40L104.43 31.0586L108.026 31.0449L112.77 39.8223V40H109.106Z" fill="white"/>
</svg>
